<svg class="diagram-root" style="background: #f5f6f6" xmlns="http://www.w3.org/2000/svg" xmlns:xlink="http://www.w3.org/1999/xlink"><style>.diagram-root { font-family: "Helvetica Neue", sans-serif; font-size: 12px; } .t { overflow: visible; } .t-bg { y: 40; fill: #fff;   } .th { fill: #005aa0;   } .tht { fill: #fff; font-size: 14px;  } .tf { fill: #323c46; overflow: visible; } .tf.pk { fill: #005aa0; font-weight: bold; } .tf.fk { font-weight: bold; } .ty { fill: #adb1b5; font-weight: normal; text-anchor: end; } .r { fill: transparent; stroke: #c3c3c3; stroke-width: 1; } .l { stroke: 1; } .i { fill: #c2c7ce; stroke: #c2c7ce; } .i.ix { fill: #afb3b6; stroke: #000; } .fa { fill: transparent; overflow: visible; } .fa .bg.hover { fill: #f7f7f7; } .c { cy: 12; r: 4; stroke: #d2d2dc; fill: #d2d2dc; } .hr { fill: transparent; stroke: #323c46; stroke-opacity: 0.035; stroke-width: 13; } .dc { stroke: #fa5a3c; fill: #fa5a3c; } .x { stroke: white; stroke-width: 1; } .hl .th { fill: #1b9bff; } .hl .tht {  } .fhl .bg { fill: #e7f4ff; } .fhls .bg {  } .r.hl { stroke: #1b9bff; } .dim { opacity: 0.25; }</style><g class="drawing-wrapper" transform="translate(-59.25, 2.5) scale(1,1)"><g class="rs"><path d="M 967.22 623.25 m -1, 0 a 1,1 0 1,0 2,0 a 1,1 0 1,0 -2,0 M 967.22 623.25 m -0.5, 0 a 0.5,0.5 0 1,0 1,0 a 0.5,0.5 0 1,0 -1,0  M967.22 623.25 L967.22 623.25 979.22 623.25 M 967.22 629.25 m -1, 0 a 1,1 0 1,0 2,0 a 1,1 0 1,0 -2,0 M 967.22 629.25 m -0.5, 0 a 0.5,0.5 0 1,0 1,0 a 0.5,0.5 0 1,0 -1,0  M967.22 629.25 L967.22 629.25 974.22 623.25 967.22 617.25 M 967.22 617.25 m -1, 0 a 1,1 0 1,0 2,0 a 1,1 0 1,0 -2,0 M 967.22 617.25 m -0.5, 0 a 0.5,0.5 0 1,0 1,0 a 0.5,0.5 0 1,0 -1,0  M979.22 623.25 C 1029.22 623.25, 1046.218 159.5, 950.89 159.5 M 938.89 159.5 m -1, 0 a 1,1 0 1,0 2,0 a 1,1 0 1,0 -2,0 M 938.89 159.5 m -0.5, 0 a 0.5,0.5 0 1,0 1,0 a 0.5,0.5 0 1,0 -1,0  M938.89 159.5 L938.89 159.5 950.89 159.5 M944.89 165.5 L944.89 165.5 944.89 153.5" id="h1195114190" class="r"></path><path d="M 818.75 648.25 m -1, 0 a 1,1 0 1,0 2,0 a 1,1 0 1,0 -2,0 M 818.75 648.25 m -0.5, 0 a 0.5,0.5 0 1,0 1,0 a 0.5,0.5 0 1,0 -1,0  M818.75 648.25 L818.75 648.25 806.75 648.25 M 818.75 654.25 m -1, 0 a 1,1 0 1,0 2,0 a 1,1 0 1,0 -2,0 M 818.75 654.25 m -0.5, 0 a 0.5,0.5 0 1,0 1,0 a 0.5,0.5 0 1,0 -1,0  M818.75 654.25 L818.75 654.25 811.75 648.25 818.75 642.25 M 818.75 642.25 m -1, 0 a 1,1 0 1,0 2,0 a 1,1 0 1,0 -2,0 M 818.75 642.25 m -0.5, 0 a 0.5,0.5 0 1,0 1,0 a 0.5,0.5 0 1,0 -1,0  M806.75 648.25 Q 671.33 648.25, 535.91 369.5 T 265.07 90.75 M 253.07 90.75 m -1, 0 a 1,1 0 1,0 2,0 a 1,1 0 1,0 -2,0 M 253.07 90.75 m -0.5, 0 a 0.5,0.5 0 1,0 1,0 a 0.5,0.5 0 1,0 -1,0  M253.07 90.75 L253.07 90.75 265.07 90.75 M259.07 96.75 L259.07 96.75 259.07 84.75" id="h1476070106" class="r"></path><path d="M 264.65 594.5 m -1, 0 a 1,1 0 1,0 2,0 a 1,1 0 1,0 -2,0 M 264.65 594.5 m -0.5, 0 a 0.5,0.5 0 1,0 1,0 a 0.5,0.5 0 1,0 -1,0  M264.65 594.5 L264.65 594.5 276.65 594.5 M 264.65 600.5 m -1, 0 a 1,1 0 1,0 2,0 a 1,1 0 1,0 -2,0 M 264.65 600.5 m -0.5, 0 a 0.5,0.5 0 1,0 1,0 a 0.5,0.5 0 1,0 -1,0  M264.65 600.5 L264.65 600.5 271.65 594.5 264.65 588.5 M 264.65 588.5 m -1, 0 a 1,1 0 1,0 2,0 a 1,1 0 1,0 -2,0 M 264.65 588.5 m -0.5, 0 a 0.5,0.5 0 1,0 1,0 a 0.5,0.5 0 1,0 -1,0  M276.65 594.5 Q 318.55 594.5, 360.45 343.25 T 444.25 92 M 456.25 92 m -1, 0 a 1,1 0 1,0 2,0 a 1,1 0 1,0 -2,0 M 456.25 92 m -0.5, 0 a 0.5,0.5 0 1,0 1,0 a 0.5,0.5 0 1,0 -1,0  M456.25 92 L456.25 92 444.25 92 M450.25 98 L450.25 98 450.25 86" id="h1772790987" class="r"></path><path d="M 783.75 184.5 m -1, 0 a 1,1 0 1,0 2,0 a 1,1 0 1,0 -2,0 M 783.75 184.5 m -0.5, 0 a 0.5,0.5 0 1,0 1,0 a 0.5,0.5 0 1,0 -1,0  M783.75 184.5 L783.75 184.5 771.75 184.5 M 783.75 190.5 m -1, 0 a 1,1 0 1,0 2,0 a 1,1 0 1,0 -2,0 M 783.75 190.5 m -0.5, 0 a 0.5,0.5 0 1,0 1,0 a 0.5,0.5 0 1,0 -1,0  M783.75 190.5 L783.75 190.5 776.75 184.5 783.75 178.5 M 783.75 178.5 m -1, 0 a 1,1 0 1,0 2,0 a 1,1 0 1,0 -2,0 M 783.75 178.5 m -0.5, 0 a 0.5,0.5 0 1,0 1,0 a 0.5,0.5 0 1,0 -1,0  M771.75 184.5 Q 647.98 184.5, 524.2 364.5 T 276.65 544.5 M 264.65 544.5 m -1, 0 a 1,1 0 1,0 2,0 a 1,1 0 1,0 -2,0 M 264.65 544.5 m -0.5, 0 a 0.5,0.5 0 1,0 1,0 a 0.5,0.5 0 1,0 -1,0  M264.65 544.5 L264.65 544.5 276.65 544.5 M270.65 550.5 L270.65 550.5 270.65 538.5" id="h3138792132" class="r"></path></g><g class="hrs"></g><g class="ts"><svg width="161.82" height="100" x="91.25" y="33.75" id="h3751862862" class="t"><rect height="40" width="161.82" class="th"></rect><text x="13" y="25" class="tht">Card_holder</text><rect height="60" width="161.82" class="t-bg"></rect><text x="13" y="61" class="tf fk">holder_id<tspan x="148.82" class="ty">INT</tspan></text><text x="13" y="86" class="tf">name<tspan x="148.82" class="ty">VARCHAR(250)</tspan></text></svg><svg width="148.47" height="100" x="818.75" y="566.25" id="h121451113" class="t"><rect height="40" width="148.47" class="th"></rect><text x="13" y="25" class="tht">Credit_card</text><rect height="60" width="148.47" class="t-bg"></rect><text x="13" y="61" class="tf fk">card<tspan x="135.47" class="ty">VARCHAR(20)</tspan></text><text x="13" y="86" class="tf fk">id_card_holder<tspan x="135.47" class="ty">INT</tspan></text></svg><svg width="183.4" height="125" x="81.25" y="487.5" id="h2257288276" class="t"><rect height="40" width="183.4" class="th"></rect><text x="13" y="25" class="tht">Merchant</text><rect height="85" width="183.4" class="t-bg"></rect><text x="13" y="61" class="tf fk">merchant_id<tspan x="170.4" class="ty">INT</tspan></text><text x="13" y="86" class="tf">name<tspan x="170.4" class="ty">VARCHAR(250)</tspan></text><text x="13" y="111" class="tf fk">id_merchant_categoty<tspan x="170.4" class="ty">INT</tspan></text></svg><svg width="161.82" height="100" x="456.25" y="35" id="h1990032269" class="t"><rect height="40" width="161.82" class="th"></rect><text x="13" y="25" class="tht">Merchant_category</text><rect height="60" width="161.82" class="t-bg"></rect><text x="13" y="61" class="tf fk">merchant_id<tspan x="148.82" class="ty">INT</tspan></text><text x="13" y="86" class="tf">name<tspan x="148.82" class="ty">VARCHAR(250)</tspan></text></svg><svg width="155.14" height="175" x="783.75" y="27.5" id="h2618827946" class="t"><rect height="40" width="155.14" class="th"></rect><text x="13" y="25" class="tht">Transaction</text><rect height="135" width="155.14" class="t-bg"></rect><text x="13" y="61" class="tf">transaction_id<tspan x="142.14" class="ty">INT</tspan></text><text x="13" y="86" class="tf">date<tspan x="142.14" class="ty">Timestamp</tspan></text><text x="13" y="111" class="tf">amount<tspan x="142.14" class="ty">money</tspan></text><text x="13" y="136" class="tf fk">card<tspan x="142.14" class="ty">VARCHAR(250)</tspan></text><text x="13" y="161" class="tf fk">id_merchant<tspan x="142.14" class="ty">INT</tspan></text></svg></g></g><text class="qdbd-link" x="10" y="20">www.quickdatabasediagrams.com</text></svg>